<?xml version="1.0" encoding="UTF-8" standalone="no"?>
<!-- Created with Inkscape (http://www.inkscape.org/) -->

<svg
   xmlns:dc="http://purl.org/dc/elements/1.1/"
   xmlns:cc="http://creativecommons.org/ns#"
   xmlns:rdf="http://www.w3.org/1999/02/22-rdf-syntax-ns#"
   xmlns:svg="http://www.w3.org/2000/svg"
   xmlns="http://www.w3.org/2000/svg"
   xmlns:sodipodi="http://sodipodi.sourceforge.net/DTD/sodipodi-0.dtd"
   xmlns:inkscape="http://www.inkscape.org/namespaces/inkscape"
   width="841.53125"
   height="347.19019"
   id="svg2"
   version="1.1"
   inkscape:version="0.48.4 r9939"
   sodipodi:docname="pingo-logo.svg"
   inkscape:export-filename="/home/mseefelder/workspace/pingofront/pages/pingo-logo.png"
   inkscape:export-xdpi="68.417511"
   inkscape:export-ydpi="68.417511">
  <defs
     id="defs4" />
  <sodipodi:namedview
     id="base"
     pagecolor="#ffffff"
     bordercolor="#666666"
     borderopacity="1.0"
     inkscape:pageopacity="0.0"
     inkscape:pageshadow="2"
     inkscape:zoom="0.38070175"
     inkscape:cx="43.624893"
     inkscape:cy="50.122107"
     inkscape:document-units="px"
     inkscape:current-layer="layer1"
     showgrid="false"
     inkscape:window-width="1362"
     inkscape:window-height="729"
     inkscape:window-x="0"
     inkscape:window-y="18"
     inkscape:window-maximized="0"
     fit-margin-top="0"
     fit-margin-left="0"
     fit-margin-right="0"
     fit-margin-bottom="0" />
  <metadata
     id="metadata7">
    <rdf:RDF>
      <cc:Work
         rdf:about="">
        <dc:format>image/svg+xml</dc:format>
        <dc:type
           rdf:resource="http://purl.org/dc/dcmitype/StillImage" />
        <dc:title></dc:title>
      </cc:Work>
    </rdf:RDF>
  </metadata>
  <g
     inkscape:label="Layer 1"
     inkscape:groupmode="layer"
     id="layer1"
     transform="translate(-105.40625,-506.55981)">
    <g
       id="g4115"
       style="stroke:#2153a3;stroke-opacity:1">
      <path
         style="fill:none;stroke:#2153a3;stroke-width:44;stroke-linecap:round;stroke-linejoin:round;stroke-miterlimit:4;stroke-opacity:1;stroke-dasharray:none"
         d="m 324.55219,528.88248 0,131.42858"
         id="path3784"
         inkscape:connector-curvature="0" />
      <path
         sodipodi:nodetypes="ccccssc"
         inkscape:connector-curvature="0"
         id="path3818"
         d="m 394.97846,528.87744 0,131.4375 z m 135.28355,131.4375 0,-62.875 c 0,-36.293 -29.42575,-65.6875 -65.71875,-65.6875 -36.293,0 -69.5648,29.3945 -69.5648,65.6875"
         style="fill:none;stroke:#2153a3;stroke-width:44;stroke-linecap:round;stroke-linejoin:round;stroke-miterlimit:4;stroke-opacity:1;stroke-dasharray:none;marker-mid:none" />
      <path
         sodipodi:nodetypes="cccssssscsssc"
         inkscape:connector-curvature="0"
         id="path3790"
         d="m 730.04498,528.87744 0,131.4375 z m -71.4375,2.875 c -36.293,0 -65.71875,29.3945 -65.71875,65.6875 0,36.293 29.42575,65.71875 65.71875,65.71875 36.293,0 65.71875,-29.42575 65.71875,-65.71875 0,-36.293 -29.42575,-65.6875 -65.71875,-65.6875 z m 71.41489,138.5625 c -27.72157,25.71429 -65.71875,59.42575 -65.71875,95.71875 0,36.293 29.42575,65.71875 65.71875,65.71875 36.293,0 65.71875,-29.42575 65.71875,-65.71875 0,-36.293 -35.14004,-70.00446 -65.71875,-95.71875 z"
         style="fill:none;stroke:#2153a3;stroke-width:44;stroke-linecap:round;stroke-linejoin:round;stroke-miterlimit:4;stroke-opacity:1;stroke-dasharray:none" />
      <path
         inkscape:connector-curvature="0"
         id="path3794"
         d="m 924.94392,597.45391 c 0,36.293 -29.42129,65.71429 -65.71431,65.71429 -36.293,0 -65.71428,-29.42129 -65.71428,-65.71429 0,-36.293 29.42128,-65.71428 65.71428,-65.71428 36.29302,0 65.71431,29.42128 65.71431,65.71428 z"
         style="fill:none;stroke:#2153a3;stroke-width:44;stroke-linecap:round;stroke-miterlimit:4;stroke-opacity:1" />
      <path
         inkscape:connector-curvature="0"
         id="path3796"
         d="m 127.41826,528.87744 0,131.4375 0,-131.4375 z m 71.40625,2.875 c -36.293,0 -65.6875,29.3945 -65.6875,65.6875 0,36.293 29.3945,65.71875 65.6875,65.71875 36.293,0 65.71875,-29.42575 65.71875,-65.71875 0,-36.293 -29.42575,-65.6875 -65.71875,-65.6875 z m -71.40625,131.40625 0,131.4375 0,-131.4375 z"
         style="fill:none;stroke:#2153a3;stroke-width:44;stroke-linecap:round;stroke-linejoin:round;stroke-miterlimit:4;stroke-opacity:1" />
    </g>
  </g>
</svg>
